<?xml version="1.0" encoding="utf-8"?>
<!-- Generator: Adobe Illustrator 16.0.0, SVG Export Plug-In . SVG Version: 6.00 Build 0)  -->
<!DOCTYPE svg PUBLIC "-//W3C//DTD SVG 1.1//EN" "http://www.w3.org/Graphics/SVG/1.1/DTD/svg11.dtd">
<svg version="1.1" id="Layer_1" xmlns="http://www.w3.org/2000/svg" xmlns:xlink="http://www.w3.org/1999/xlink" x="0px" y="0px"
	 width="960px" height="240px" viewBox="0 0 960 240" enable-background="new 0 0 960 240" xml:space="preserve">
<path d="M461.146,140.354c-0.426,0.424-0.973,0.545-1.52,0.303c-0.547-0.242-0.851-0.726-0.851-1.271s0.365-1.09,0.851-1.271
	c0.547-0.241,1.094-0.121,1.52,0.303C461.693,138.901,461.693,139.81,461.146,140.354L461.146,140.354z M504.065,100.471
	l-4.924,4.902l-3.891-1.029l-0.973-3.813l4.924-4.902c-2.918-1.089-6.201-0.424-8.511,1.634c-2.311,2.118-3.223,5.265-2.432,8.291
	l-31.005,30.866c-1.094,1.029-1.52,2.603-1.155,4.055c0.365,1.453,1.52,2.603,2.979,2.966c1.459,0.363,2.979-0.061,4.073-1.149
	l31.004-30.866c3.04,0.787,6.201-0.121,8.329-2.421C504.552,106.704,505.221,103.375,504.065,100.471L504.065,100.471z"/>
<path d="M503.822,136.42l-15.685-15.614l-6.322,6.294l15.198,15.131l0.547,0.544l0.061-0.061c1.764,1.271,4.195,1.029,5.715-0.483
	C504.855,140.656,505.038,138.235,503.822,136.42L503.822,136.42L503.822,136.42L503.822,136.42z"/>
<polygon points="464.854,102.226 464.915,102.165 463.334,99.26 458.106,95.084 455.979,97.203 460.173,102.407 463.091,103.981 
	463.152,103.92 474.763,115.48 476.466,113.785 464.854,102.226 "/>
</svg>
