<?xml version="1.0" encoding="utf-8"?>
<!-- Generator: Adobe Illustrator 16.0.0, SVG Export Plug-In . SVG Version: 6.00 Build 0)  -->
<!DOCTYPE svg PUBLIC "-//W3C//DTD SVG 1.1//EN" "http://www.w3.org/Graphics/SVG/1.1/DTD/svg11.dtd">
<svg version="1.1" id="Layer_1" xmlns="http://www.w3.org/2000/svg" xmlns:xlink="http://www.w3.org/1999/xlink" x="0px" y="0px"
	 width="960px" height="240px" viewBox="0 0 960 240" enable-background="new 0 0 960 240" xml:space="preserve">
<path d="M484.551,106.522c0,2.36-1.885,4.237-4.255,4.237c-2.371,0-4.256-1.876-4.256-4.237s1.885-4.236,4.256-4.236
	C482.666,102.286,484.551,104.223,484.551,106.522"/>
<path d="M501.573,108.943c0,2.36-1.885,4.237-4.256,4.237s-4.255-1.876-4.255-4.237s1.884-4.236,4.255-4.236
	S501.573,106.583,501.573,108.943"/>
<path d="M467.529,108.943c0,2.36-1.885,4.237-4.256,4.237c-2.371,0-4.255-1.876-4.255-4.237s1.885-4.236,4.255-4.236
	C465.645,104.707,467.529,106.583,467.529,108.943"/>
<path d="M456.343,136.299c0-8.836,10.699-15.978,23.953-15.978c13.191,0,23.952,7.142,23.952,15.978H456.343L456.343,136.299
	L456.343,136.299z"/>
<path d="M461.814,122.561c2.553-1.694,5.532-3.025,8.754-3.873v-0.666c0-0.666-0.304-1.331-0.729-1.755
	c-0.183-0.182-0.608-0.424-1.155-0.666c-3.344-1.574-7.295-1.574-10.7-0.061c-0.608,0.242-1.094,0.544-1.337,0.726
	c-0.365,0.424-0.668,1.089-0.668,1.755v10.289C457.376,126.192,459.322,124.195,461.814,122.561"/>
<path d="M487.591,118.082v-2.481c0-0.666-0.304-1.332-0.729-1.755c-0.183-0.182-0.608-0.424-1.155-0.666
	c-3.344-1.574-7.295-1.574-10.7-0.061c-0.608,0.242-1.094,0.544-1.337,0.726c-0.486,0.424-0.729,1.089-0.729,1.755v2.481
	c2.371-0.484,4.803-0.726,7.295-0.726C482.728,117.356,485.22,117.659,487.591,118.082"/>
<path d="M504.612,128.311v-10.289c0-0.666-0.304-1.331-0.729-1.755c-0.182-0.182-0.607-0.424-1.154-0.666
	c-3.344-1.574-7.296-1.574-10.7-0.061c-0.607,0.242-1.094,0.544-1.337,0.726c-0.486,0.424-0.729,1.089-0.729,1.755v0.666
	c3.222,0.848,6.2,2.179,8.754,3.873C501.27,124.195,503.215,126.192,504.612,128.311"/>
</svg>
