<?xml version="1.0" encoding="utf-8"?>
<!-- Generator: Adobe Illustrator 16.0.0, SVG Export Plug-In . SVG Version: 6.00 Build 0)  -->
<!DOCTYPE svg PUBLIC "-//W3C//DTD SVG 1.1//EN" "http://www.w3.org/Graphics/SVG/1.1/DTD/svg11.dtd">
<svg version="1.1" id="Layer_1" xmlns="http://www.w3.org/2000/svg" xmlns:xlink="http://www.w3.org/1999/xlink" x="0px" y="0px"
	 width="1190.55px" height="841.89px" viewBox="0 0 1190.55 841.89" enable-background="new 0 0 1190.55 841.89"
	 xml:space="preserve">
<polygon fill="#00A556" points="345.494,393.579 378.471,432.173 413.625,417.676 396.938,374.004 "/>
<polygon fill="#CFDD45" points="321.023,343.744 337.149,340.118 357.613,306.237 "/>
<polygon fill="#8EC854" points="321.023,343.751 323.024,396.478 345.494,393.58 337.149,340.125 "/>
<polygon fill="#39B54A" points="323.024,396.478 360.714,430.903 378.471,432.173 345.493,393.58 "/>
<polygon fill="#8EC854" points="357.612,306.238 373.018,324.9 337.138,340.125 "/>
<polygon fill="#39B54A" points="373.017,324.899 396.938,374.004 345.493,393.58 337.139,340.122 "/>
<polygon fill="#007847" points="378.473,432.173 411.991,426.919 413.625,417.677 "/>
<polygon fill="#57BA56" points="357.633,306.238 404.563,309.322 373.018,324.9 "/>
<polygon fill="#00A85D" points="440.611,350.444 404.562,309.321 373.024,324.896 396.938,374.004 "/>
<polygon fill="#00946D" points="440.611,350.444 442.254,400.646 413.625,417.676 396.938,374.004 "/>
<polygon fill="#38793C" points="442.254,400.646 411.994,426.919 413.625,417.676 "/>
<polygon fill="#39B54A" points="357.633,306.238 404.563,309.322 410.905,304.067 "/>
<polygon fill="#009F4C" points="446.961,340.125 410.901,304.066 404.563,309.321 440.611,350.444 "/>
<polygon fill="#00895A" points="446.961,340.125 447.146,389.934 442.252,400.62 440.611,350.444 "/>
<polygon fill="#00A556" points="345.494,393.579 378.471,432.173 413.625,417.676 396.938,374.004 "/>
<polygon fill="#CFDD45" points="321.023,343.744 337.149,340.118 357.613,306.237 "/>
<polygon fill="#8EC854" points="321.023,343.751 323.024,396.478 345.494,393.58 337.149,340.125 "/>
<polygon fill="#39B54A" points="323.024,396.478 360.714,430.903 378.471,432.173 345.493,393.58 "/>
<polygon fill="#8EC854" points="357.612,306.238 373.018,324.9 337.138,340.125 "/>
<polygon fill="#39B54A" points="373.017,324.899 396.938,374.004 345.493,393.58 337.139,340.122 "/>
<polygon fill="#007847" points="378.473,432.173 411.991,426.919 413.625,417.677 "/>
<polygon fill="#57BA56" points="357.633,306.238 404.563,309.322 373.018,324.9 "/>
<polygon fill="#00A85D" points="440.611,350.444 404.562,309.321 373.024,324.896 396.938,374.004 "/>
<polygon fill="#00946D" points="440.611,350.444 442.254,400.646 413.625,417.676 396.938,374.004 "/>
<polygon fill="#38793C" points="442.254,400.646 411.994,426.919 413.625,417.676 "/>
<polygon fill="#39B54A" points="357.633,306.238 404.563,309.322 410.905,304.067 "/>
<polygon fill="#009F4C" points="446.961,340.125 410.901,304.066 404.563,309.321 440.611,350.444 "/>
<polygon fill="#00895A" points="446.961,340.125 447.146,389.934 442.252,400.62 440.611,350.444 "/>
</svg>
