<?xml version="1.0" encoding="utf-8"?>
<!-- Generator: Adobe Illustrator 16.0.0, SVG Export Plug-In . SVG Version: 6.00 Build 0)  -->
<!DOCTYPE svg PUBLIC "-//W3C//DTD SVG 1.1//EN" "http://www.w3.org/Graphics/SVG/1.1/DTD/svg11.dtd">
<svg version="1.1" id="Layer_1" xmlns="http://www.w3.org/2000/svg" xmlns:xlink="http://www.w3.org/1999/xlink" x="0px" y="0px"
	 width="960px" height="240px" viewBox="0 0 960 240" enable-background="new 0 0 960 240" xml:space="preserve">
<path d="M483.335,94.479c0,1.003-0.816,1.815-1.823,1.815c-1.008,0-1.824-0.813-1.824-1.815s0.816-1.815,1.824-1.815
	C482.519,92.664,483.335,93.476,483.335,94.479L483.335,94.479z"/>
<path d="M486.375,99.926c0,1.003-0.816,1.816-1.824,1.816c-1.007,0-1.823-0.813-1.823-1.816c0-1.002,0.816-1.815,1.823-1.815
	C485.559,98.11,486.375,98.923,486.375,99.926L486.375,99.926z"/>
<path d="M479.688,98.715c0,1.003-0.816,1.816-1.824,1.816s-1.824-0.813-1.824-1.816c0-1.002,0.816-1.815,1.824-1.815
	S479.688,97.713,479.688,98.715L479.688,98.715z"/>
<path d="M481.512,105.373c0,1.337-1.089,2.421-2.432,2.421c-1.343,0-2.432-1.083-2.432-2.421c0-1.337,1.089-2.42,2.432-2.42
	C480.423,102.952,481.512,104.036,481.512,105.373L481.512,105.373z"/>
<path d="M492.15,140.838l-6.991-15.735v-10.651c0-2.179,1.763-3.087,1.823-3.147c0.608-0.302,0.852-1.029,0.548-1.634
	c-0.243-0.424-0.669-0.666-1.155-0.666l0,0h-12.159l0,0c-0.486,0-0.912,0.242-1.155,0.666c-0.304,0.605-0.061,1.332,0.547,1.634
	c0,0,1.824,0.968,1.824,3.147v10.651l-6.991,15.735c-0.486,1.15-0.365,2.421,0.304,3.45c0.668,1.028,1.824,1.634,3.04,1.634h17.022
	c1.216,0,2.371-0.605,3.039-1.634C492.515,143.259,492.637,141.988,492.15,140.838L492.15,140.838z M482.728,114.451v2.42h-4.864
	v-2.42c0-1.271-0.365-2.24-0.79-3.026h6.504C483.092,112.211,482.728,113.18,482.728,114.451L482.728,114.451z"/>
</svg>
