<?xml version="1.0" encoding="utf-8"?>
<!-- Generator: Adobe Illustrator 16.0.0, SVG Export Plug-In . SVG Version: 6.00 Build 0)  -->
<!DOCTYPE svg PUBLIC "-//W3C//DTD SVG 1.1//EN" "http://www.w3.org/Graphics/SVG/1.1/DTD/svg11.dtd">
<svg version="1.1" id="Layer_1" xmlns="http://www.w3.org/2000/svg" xmlns:xlink="http://www.w3.org/1999/xlink" x="0px" y="0px"
	 width="960px" height="240px" viewBox="0 0 960 240" enable-background="new 0 0 960 240" xml:space="preserve">
<path d="M488.198,98.11c0,2.674-2.177,4.842-4.863,4.842c-2.686,0-4.863-2.168-4.863-4.842s2.178-4.842,4.863-4.842
	C486.021,93.269,488.198,95.437,488.198,98.11L488.198,98.11z"/>
<path d="M482.545,123.348l1.642-8.17l1.155,2.663c0.304,0.605,0.79,1.089,1.459,1.332l5.045,1.694l-4.681,5.87L482.545,123.348
	L482.545,123.348L482.545,123.348z M495.676,116.993l-6.262-2.058c0,0-3.465-7.989-3.586-8.231
	c-0.852-1.573-2.493-2.542-4.256-2.542c-0.729,0-1.398,0.182-2.067,0.484c-1.337,0.545-2.31,1.634-2.553,3.026l-1.338,6.416
	l-3.586,17.43l-8.207,9.865c-0.851,1.029-0.729,2.542,0.304,3.39c0.426,0.362,0.973,0.544,1.52,0.544
	c0.729,0,1.398-0.303,1.885-0.907l8.511-10.289c0.243-0.303,0.426-0.666,0.486-1.028l1.459-7.021l6.14,4.418l-10.273,12.891
	c-0.304,0.363-0.365,0.787-0.183,1.211c0.183,0.423,0.547,0.726,0.973,0.786c0.426,0.061,0.852-0.121,1.155-0.484l8.754-11.015
	v8.957c0,1.271,0.912,2.36,2.188,2.542c0.669,0.061,1.398-0.182,1.885-0.604c0.486-0.484,0.79-1.09,0.79-1.816v-13.375
	c0-0.484-0.121-0.907-0.425-1.331l5.289-6.597c0.182,0.061,0.425,0.061,0.607,0.061c1.033,0,1.945-0.666,2.311-1.635
	c0.182-0.604,0.182-1.271-0.122-1.876C496.771,117.659,496.284,117.174,495.676,116.993L495.676,116.993z"/>
<path d="M470.143,102.104c0.122-0.666,0.791-1.089,1.398-0.968c0.668,0.121,1.094,0.787,0.973,1.392
	c-0.122,0.666-0.791,1.089-1.398,0.968C470.447,103.375,470.021,102.71,470.143,102.104L470.143,102.104z M475.493,103.073
	c0.364-1.876-0.608-3.813-2.371-4.599c-1.763-0.787-3.83-0.363-5.106,1.089c-1.277,1.452-1.338,3.57-0.243,5.144
	c-0.608-0.121-1.216,0.303-1.338,0.968l-2.249,11.136c-0.304,1.271,0,2.542,0.851,3.571c0.79,1.029,2.006,1.573,3.283,1.573
	c2.067-0.06,3.769-1.573,4.134-3.57l2.25-11.136c0.061-0.303,0-0.605-0.183-0.908c-0.182-0.242-0.425-0.424-0.729-0.545h-0.122
	C474.642,105.252,475.311,104.223,475.493,103.073L475.493,103.073z"/>
</svg>
