<?xml version="1.0" encoding="utf-8"?>
<!-- Generator: Adobe Illustrator 16.0.0, SVG Export Plug-In . SVG Version: 6.00 Build 0)  -->
<!DOCTYPE svg PUBLIC "-//W3C//DTD SVG 1.1//EN" "http://www.w3.org/Graphics/SVG/1.1/DTD/svg11.dtd">
<svg version="1.1" id="Layer_1" xmlns="http://www.w3.org/2000/svg" xmlns:xlink="http://www.w3.org/1999/xlink" x="0px" y="0px"
	 width="960px" height="240px" viewBox="0 0 960 240" enable-background="new 0 0 960 240" xml:space="preserve">
<path d="M478.411,134.06c-0.304,0-0.669-0.061-0.912-0.303c-0.486-0.423-0.547-1.21-0.122-1.694l2.371-2.724
	c0.425-0.484,1.215-0.545,1.702-0.121s0.548,1.211,0.122,1.695l-2.371,2.723C479.019,133.878,478.715,133.999,478.411,134.06
	L478.411,134.06z"/>
<path d="M474.703,132.668c-0.426,0.061-0.791-0.061-1.155-0.363c-0.608-0.545-0.668-1.513-0.122-2.118l2.797-3.208
	c0.547-0.604,1.52-0.665,2.127-0.121c0.608,0.545,0.669,1.514,0.122,2.118l-2.796,3.208
	C475.432,132.486,475.067,132.668,474.703,132.668L474.703,132.668z"/>
<path d="M470.873,130.429c-0.486,0.061-0.973-0.121-1.337-0.424c-0.729-0.666-0.851-1.815-0.182-2.542l2.796-3.208
	c0.668-0.726,1.824-0.847,2.553-0.181c0.729,0.665,0.851,1.815,0.182,2.541l-2.796,3.208
	C471.785,130.187,471.298,130.429,470.873,130.429L470.873,130.429z"/>
<path d="M466.435,128.189c-0.486,0.061-0.973-0.121-1.337-0.424c-0.729-0.666-0.851-1.815-0.182-2.542l3.222-3.631
	c0.669-0.727,1.824-0.848,2.554-0.182c0.729,0.665,0.851,1.815,0.182,2.542l-3.222,3.631
	C467.286,127.947,466.86,128.129,466.435,128.189L466.435,128.189z"/>
<path d="M453.912,114.875l4.681,2.845c0.547,0.363,1.337,0.182,1.642-0.424l5.654-9.32c0.365-0.544,0.182-1.332-0.426-1.634
	l-4.62-2.845L453.912,114.875L453.912,114.875L453.912,114.875z"/>
<path d="M493.306,122.803l-9.788-8.352l-0.669-0.605l-4.194,4.781c-0.608,0.727-1.459,1.149-2.432,1.21c-0.122,0-0.243,0-0.304,0
	c-0.912,0-1.763-0.302-2.371-0.907c-1.52-1.332-1.641-3.631-0.365-5.145l3.587-4.115c-2.796-0.363-6.383,1.089-10.092-0.727
	l-5.289,8.715l4.134,4.781l1.581-1.815c0.547-0.666,1.398-1.028,2.31-1.028l0,0c0.729,0,1.459,0.241,2.006,0.726
	c0.668,0.545,0.973,1.332,1.033,2.179c0.304-0.121,0.669-0.182,1.034-0.182c0.729,0,1.459,0.242,2.006,0.727
	c0.668,0.605,1.033,1.392,1.033,2.239c0.243-0.061,0.547-0.121,0.791-0.121l0,0c0.668,0,1.276,0.242,1.824,0.666
	c0.547,0.484,0.851,1.149,0.912,1.876c0.182-0.061,0.425-0.121,0.668-0.121l0,0c0.608,0,1.155,0.182,1.581,0.605
	c0.486,0.424,0.79,1.028,0.851,1.634c0.062,0.666-0.182,1.271-0.607,1.755l-2.067,2.36l0.852,0.666
	c0.426,0.242,0.912,0.424,1.459,0.363c1.337-0.121,2.311-1.271,2.188-2.603v-0.061c0.183,0.061,0.426,0.061,0.608,0.061
	c1.337-0.121,2.31-1.271,2.188-2.603v-0.061c0.182,0.061,0.425,0.061,0.607,0.061c1.338-0.121,2.311-1.271,2.188-2.603
	c0-0.121-0.061-0.242-0.061-0.363c0.364,0.182,0.79,0.303,1.276,0.242c1.338-0.121,2.311-1.271,2.188-2.603
	C494.035,123.771,493.73,123.227,493.306,122.803L493.306,122.803z"/>
<path d="M506.68,114.875l-4.681,2.845c-0.548,0.363-1.338,0.182-1.642-0.424l-5.654-9.32c-0.364-0.544-0.182-1.332,0.426-1.634
	l4.682-2.845L506.68,114.875L506.68,114.875L506.68,114.875z"/>
<path d="M493.974,109.186c-5.046,1.816-8.693,0.061-12.767-0.726c-0.061,0-0.304-0.061-0.304-0.061
	c-0.729-0.061-1.52,0.182-2.067,0.787l-4.803,5.447c-0.912,1.029-0.79,2.542,0.243,3.389c0.547,0.424,1.155,0.666,1.824,0.605
	c0.608-0.061,1.216-0.303,1.642-0.847l4.985-5.689l11.368,9.744l0,0l0,0c0.304,0.302,0.426,0.423,0.669,0.786l4.377-5.023
	L493.974,109.186L493.974,109.186L493.974,109.186z"/>
</svg>
