<?xml version="1.0" encoding="utf-8"?>
<!-- Generator: Adobe Illustrator 16.0.0, SVG Export Plug-In . SVG Version: 6.00 Build 0)  -->
<!DOCTYPE svg PUBLIC "-//W3C//DTD SVG 1.1//EN" "http://www.w3.org/Graphics/SVG/1.1/DTD/svg11.dtd">
<svg version="1.1" id="Layer_1" xmlns="http://www.w3.org/2000/svg" xmlns:xlink="http://www.w3.org/1999/xlink" x="0px" y="0px"
	 width="960px" height="240px" viewBox="0 0 960 240" enable-background="new 0 0 960 240" xml:space="preserve">
<path d="M471.177,108.883c0,3.008-2.45,5.447-5.472,5.447c-3.021,0-5.471-2.439-5.471-5.447c0-3.008,2.45-5.447,5.471-5.447
	C468.727,103.436,471.177,105.875,471.177,108.883L471.177,108.883z"/>
<path d="M500.357,108.883c0,3.008-2.45,5.447-5.472,5.447s-5.472-2.439-5.472-5.447c0-3.008,2.45-5.447,5.472-5.447
	S500.357,105.875,500.357,108.883L500.357,108.883z"/>
<path d="M491.238,135.149v-5.447c0-0.848-0.365-1.694-1.095-2.179c-1.459-1.21-3.404-2.058-5.35-2.542
	c-1.337-0.363-2.918-0.727-4.498-0.727c-1.459,0-3.04,0.242-4.499,0.727c-1.945,0.484-3.769,1.453-5.35,2.542
	c-0.729,0.605-1.094,1.331-1.094,2.179v5.447H491.238L491.238,135.149L491.238,135.149z"/>
<path d="M485.767,117.356c0,3.008-2.449,5.447-5.471,5.447c-3.022,0-5.472-2.438-5.472-5.447s2.45-5.447,5.472-5.447
	C483.317,111.909,485.767,114.348,485.767,117.356L485.767,117.356z"/>
<path d="M504.734,119.051c-1.459-1.21-3.404-2.058-5.35-2.542c-1.338-0.363-2.918-0.727-4.499-0.727
	c-1.459,0-3.04,0.242-4.499,0.727c-0.729,0.242-1.459,0.484-2.188,0.847v0.121c0,2.058-0.851,3.995-2.188,5.326
	c2.311,0.727,4.134,1.694,5.594,2.784c0.364,0.363,0.729,0.605,0.973,1.089h13.252v-5.446
	C505.828,120.382,505.464,119.535,504.734,119.051L504.734,119.051z"/>
<path d="M468.988,125.587L468.988,125.587c1.702-1.211,3.647-2.179,5.593-2.784c-1.337-1.452-2.188-3.268-2.188-5.326
	c0-0.121,0-0.121,0-0.242c-0.729-0.242-1.459-0.605-2.188-0.726c-1.337-0.363-2.918-0.727-4.499-0.727
	c-1.459,0-3.04,0.242-4.499,0.727c-1.945,0.605-3.769,1.452-5.35,2.542c-0.729,0.484-1.094,1.331-1.094,2.179v5.446h13.131
	C468.259,126.192,468.502,125.95,468.988,125.587L468.988,125.587z"/>
</svg>
