<?xml version="1.0" encoding="utf-8"?>
<!-- Generator: Adobe Illustrator 16.0.0, SVG Export Plug-In . SVG Version: 6.00 Build 0)  -->
<!DOCTYPE svg PUBLIC "-//W3C//DTD SVG 1.1//EN" "http://www.w3.org/Graphics/SVG/1.1/DTD/svg11.dtd">
<svg version="1.1" id="Layer_1" xmlns="http://www.w3.org/2000/svg" xmlns:xlink="http://www.w3.org/1999/xlink" x="0px" y="0px"
	 width="960px" height="240px" viewBox="0 0 960 240" enable-background="new 0 0 960 240" xml:space="preserve">
<path d="M480.296,102.044c2.675,0,4.863-2.179,4.863-4.841c0-2.663-2.188-4.842-4.863-4.842c-2.675,0-4.864,2.179-4.864,4.842
	C475.432,99.865,477.621,102.044,480.296,102.044"/>
<polygon points="492.454,120.2 494.886,112.938 465.705,112.938 468.137,120.2 471.785,120.2 474.216,143.804 470.569,143.804 
	470.569,146.225 490.022,146.225 490.022,143.804 486.375,143.804 488.807,120.2 492.454,120.2 "/>
<path d="M490.144,107.733c-0.121-0.484-0.364-0.968-0.729-1.331c-1.459-1.21-3.161-2.058-5.106-2.663
	c-1.337-0.242-2.675-0.484-4.012-0.484c-1.338,0-2.675,0.242-4.013,0.605c-1.945,0.484-3.647,1.453-5.106,2.663
	c-0.365,0.363-0.608,0.848-0.729,1.332l-0.608,2.663h20.973L490.144,107.733L490.144,107.733L490.144,107.733z"/>
</svg>
