<?xml version="1.0" encoding="utf-8"?>
<!-- Generator: Adobe Illustrator 16.0.0, SVG Export Plug-In . SVG Version: 6.00 Build 0)  -->
<!DOCTYPE svg PUBLIC "-//W3C//DTD SVG 1.1//EN" "http://www.w3.org/Graphics/SVG/1.1/DTD/svg11.dtd">
<svg version="1.1" id="Layer_1" xmlns="http://www.w3.org/2000/svg" xmlns:xlink="http://www.w3.org/1999/xlink" x="0px" y="0px"
	 width="960px" height="240px" viewBox="0 0 960 240" enable-background="new 0 0 960 240" xml:space="preserve">
<path d="M576.647,101.393c0,5.348-4.354,9.683-9.727,9.683c-5.373,0-9.727-4.335-9.727-9.683c0-5.348,4.354-9.684,9.727-9.684
	C572.293,91.709,576.647,96.045,576.647,101.393L576.647,101.393z"/>
<path d="M586.374,132.865v-9.684c0-1.453-0.729-2.907-1.945-3.874c-2.675-2.18-6.079-3.633-9.483-4.6
	c-2.432-0.727-5.106-1.211-8.024-1.211c-2.676,0-5.35,0.484-8.025,1.211c-3.404,0.967-6.809,2.662-9.483,4.6
	c-1.216,0.967-1.945,2.42-1.945,3.874v9.684H586.374L586.374,132.865L586.374,132.865z"/>
</svg>
